<svg width="200" height="175" viewBox="0 0 200 175" fill="none" xmlns="http://www.w3.org/2000/svg">
<path d="M150.002 175V162.5C150.002 160.858 149.678 159.233 149.05 157.716C148.422 156.2 147.502 154.822 146.341 153.661C145.179 152.5 143.801 151.579 142.285 150.951C140.769 150.323 139.143 150 137.501 150H87.4975C70.9212 150 55.0238 143.415 43.3025 131.694C31.5812 119.973 24.9962 104.076 24.9959 87.5C24.9959 79.2923 26.6126 71.1651 29.7536 63.5822C32.8946 55.9993 37.4985 49.1094 43.3023 43.3056C49.1061 37.502 55.9962 32.8984 63.5792 29.7575C71.1622 26.6166 79.2897 25.0002 87.4975 25.0003H137.498C139.139 25.0007 140.766 24.6778 142.283 24.0499C143.799 23.4219 145.178 22.5012 146.339 21.3404C147.501 20.1796 148.421 18.8014 149.05 17.2846C149.678 15.7678 150.002 14.142 150.002 12.5001V0L87.5003 0C76.0095 -6.595e-10 64.6313 2.26326 54.0151 6.66055C43.399 11.0578 33.7531 17.5031 25.628 25.6282C17.5027 33.7534 11.0575 43.3993 6.66029 54.0153C2.26305 64.6312 -0.000123114 76.0094 5.02303e-09 87.5C-4.35173e-09 110.706 9.2187 132.962 25.6281 149.372C42.0376 165.781 64.2937 175 87.5003 175H150.002Z" fill="black"/>
<path d="M49.9944 87.5C49.9944 97.4456 53.9452 106.983 60.9777 114.015C68.0101 121.048 77.5482 124.999 87.4935 124.999H150C156.63 124.999 162.988 127.633 167.677 132.321C172.365 137.009 174.999 143.368 174.999 149.999V174.999H200V150C200 136.739 194.732 124.022 185.356 114.644C175.978 105.268 163.26 100 150 100H87.4953C84.1801 100 81.0006 98.683 78.6563 96.3393C76.312 93.9947 74.995 90.8152 74.995 87.5C74.995 84.1848 76.312 81.0054 78.6563 78.661C81.0006 76.3168 84.1801 74.9999 87.4953 74.9999H150C163.26 74.9999 175.978 69.7321 185.356 60.3553C194.732 50.9786 200 38.261 200 25.0003V0L174.996 0V25.0003C174.996 31.6298 172.362 37.988 167.675 42.6761C162.987 47.3643 156.63 49.9986 150 49.9996H87.4953C82.5706 49.9993 77.694 50.9691 73.1441 52.8536C68.5941 54.7381 64.46 57.5004 60.9777 60.9826C57.4954 64.4649 54.7331 68.5991 52.8486 73.1489C50.9641 77.6988 49.9942 82.5753 49.9944 87.5Z" fill="black"/>
</svg>
